<svg xmlns="http://www.w3.org/2000/svg" width="124" height="124" viewBox="0 0 124 124" role="img" aria-label="youtube">
  <title>youtube</title>
  <defs>
    <filter id="neu" x="-30%" y="-40%" width="160%" height="180%" color-interpolation-filters="sRGB">
      <feOffset in="SourceAlpha" dx="-5" dy="-5" result="o1"/>
      <feGaussianBlur in="o1" stdDeviation="5" result="b1"/>
      <feFlood flood-color="#ffffff" flood-opacity="0.55" result="c1"/>
      <feComposite in="c1" in2="b1" operator="in" result="s1"/>
      <feOffset in="SourceAlpha" dx="5" dy="5" result="o2"/>
      <feGaussianBlur in="o2" stdDeviation="5" result="b2"/>
      <feFlood flood-color="#8f9bb0" flood-opacity="0.65" result="c2"/>
      <feComposite in="c2" in2="b2" operator="in" result="s2"/>
      <feMerge>
        <feMergeNode in="s2"/>
        <feMergeNode in="s1"/>
        <feMergeNode in="SourceGraphic"/>
      </feMerge>
    </filter>
  </defs>
  <rect x="22" y="22" width="80" height="80" rx="26" fill="#ff0000" filter="url(#neu)"/>
  <g transform="translate(62,62) scale(1.6666666666666667) translate(-12,-12)" fill="#ffffff" color="#ffffff">
    <path d="M23.498 6.186a3.016 3.016 0 0 0-2.122-2.136C19.505 3.545 12 3.545 12 3.545s-7.505 0-9.377.505A3.017 3.017 0 0 0 .502 6.186C0 8.07 0 12 0 12s0 3.93.502 5.814a3.016 3.016 0 0 0 2.122 2.136c1.871.505 9.376.505 9.376.505s7.505 0 9.377-.505a3.015 3.015 0 0 0 2.122-2.136C24 15.93 24 12 24 12s0-3.93-.502-5.814zM9.545 15.568V8.432L15.818 12l-6.273 3.568z"/>
  </g>
</svg>
